<?xml version="1.0" encoding="UTF-8" standalone="no"?>
<!DOCTYPE svg PUBLIC "-//W3C//DTD SVG 1.1//EN" "http://www.w3.org/Graphics/SVG/1.1/DTD/svg11.dtd">
<svg xmlns="http://www.w3.org/2000/svg" version="1.1" viewBox="0.00 0.00 884.00 282.00">
<path fill="#009fe8" d="
  M 216.85 128.69
  C 207.65 100.65 188.15 82.67 157.98 80.54
  C 98.55 76.34 62.57 129.89 48.47 180.09
  A 0.40 0.39 -46.2 0 1 47.71 180.11
  C 23.69 104.79 86.46 30.93 164.65 45.68
  C 229.06 57.84 266.26 127.17 239.86 187.79
  Q 239.67 188.24 239.21 188.04
  Q 217.13 178.22 198.36 163.16
  C 192.63 158.57 186.67 152.00 188.38 144.05
  C 191.43 129.87 204.07 129.05 216.20 129.55
  A 0.66 0.66 0.0 0 0 216.85 128.69
  Z"
/>
<path fill="#0068b6" d="
  M 396.98 137.86
  Q 416.35 119.11 436.11 100.11
  C 442.72 93.76 452.31 94.78 455.27 104.06
  C 456.74 108.69 454.05 112.21 450.46 115.52
  Q 436.63 128.26 422.77 141.04
  A 0.33 0.33 0.0 0 0 422.75 141.51
  Q 438.45 158.25 453.90 175.23
  Q 458.12 179.87 458.90 182.57
  C 461.38 191.19 452.26 198.92 444.28 195.93
  Q 441.27 194.81 436.91 190.15
  Q 421.80 174.01 406.27 157.68
  A 1.08 1.08 0.0 0 0 404.75 157.64
  C 402.17 160.03 395.51 164.58 395.82 168.26
  C 396.35 174.71 397.55 186.90 393.91 192.40
  C 389.83 198.59 378.80 198.34 375.14 191.60
  Q 373.75 189.06 373.75 183.63
  Q 373.76 126.91 373.74 70.19
  Q 373.73 65.57 375.03 63.02
  C 379.29 54.63 391.82 55.46 395.23 64.17
  Q 395.97 66.04 395.98 69.56
  Q 396.03 97.94 395.99 126.32
  C 395.98 128.94 396.47 133.55 395.93 137.32
  A 0.62 0.62 0.0 0 0 396.98 137.86
  Z"
/>
<rect fill="#0068b6" x="526.00" y="57.23" width="22.50" height="139.54" rx="10.97"/>
<rect fill="#0068b6" x="577.20" y="57.29" width="22.30" height="139.42" rx="10.67"/>
<path fill="#0068b6" d="
  M 708.52 97.75
  C 714.29 97.76 724.63 96.65 729.55 98.80
  C 737.85 102.43 737.36 114.60 728.83 117.75
  C 723.77 119.61 713.90 118.46 708.33 118.38
  Q 707.76 118.38 707.76 118.94
  Q 707.73 150.02 707.75 181.00
  Q 707.76 187.59 706.64 190.32
  C 703.00 199.17 689.87 198.99 686.15 190.16
  Q 685.27 188.09 685.27 184.08
  Q 685.23 151.78 685.26 119.35
  Q 685.26 118.48 684.39 118.49
  C 680.08 118.54 674.41 119.01 670.73 117.57
  C 662.81 114.47 662.16 102.87 669.84 98.95
  C 673.51 97.07 679.81 97.72 684.35 97.76
  A 0.87 0.87 0.0 0 0 685.23 96.90
  C 685.28 92.78 685.01 88.13 685.59 84.41
  C 687.95 69.35 699.17 59.15 714.68 57.68
  C 722.04 56.99 734.51 56.16 739.07 63.85
  Q 741.42 67.80 739.55 72.56
  C 736.30 80.85 729.15 78.34 722.59 77.22
  C 708.44 74.81 706.90 86.24 707.99 97.27
  Q 708.04 97.75 708.52 97.75
  Z"
/>
<rect fill="#0068b6" x="477.57" y="61.16" width="23.58" height="22.20" rx="8.18"/>
<rect fill="#0068b6" x="-11.69" y="-11.11" transform="translate(636.25,72.25) rotate(-0.1)" width="23.38" height="22.22" rx="8.11"/>
<path fill="#0068b6" d="
  M 325.25 179.51
  C 333.43 177.26 334.22 167.59 328.73 162.25
  C 327.16 160.72 322.38 158.78 319.61 157.95
  C 302.41 152.80 280.86 149.03 277.42 129.59
  C 274.44 112.71 284.36 101.25 299.71 96.25
  C 315.07 91.26 335.65 94.90 346.79 106.95
  C 353.66 114.37 349.15 126.15 338.51 123.77
  C 334.50 122.87 331.90 118.80 329.14 117.00
  C 322.26 112.53 312.92 110.96 304.74 113.70
  C 299.32 115.52 297.14 120.90 298.99 126.12
  C 300.51 130.44 304.84 132.64 309.01 133.98
  C 325.00 139.11 348.01 142.08 351.93 162.36
  C 356.10 183.93 337.77 197.29 318.19 198.66
  C 302.96 199.73 285.64 194.63 275.62 182.64
  Q 269.38 175.19 275.76 168.83
  C 280.82 163.77 286.47 165.55 291.30 169.97
  C 301.11 178.96 312.02 183.15 325.25 179.51
  Z"
/>
<path fill="#0068b6" d="
  M 173.34 113.70
  C 153.74 102.60 129.38 108.74 112.54 122.31
  C 86.34 143.43 74.00 181.45 67.44 213.05
  A 0.59 0.59 0.0 0 1 66.39 213.28
  L 58.20 202.15
  A 1.70 1.69 -56.4 0 1 57.92 200.76
  C 68.07 158.06 90.18 105.81 139.17 96.13
  C 160.18 91.98 182.67 97.85 195.09 116.39
  A 0.55 0.55 0.0 0 1 194.82 117.21
  Q 178.31 123.21 174.15 140.19
  C 170.25 156.13 180.63 168.04 192.20 177.14
  Q 210.61 191.62 232.13 201.02
  A 0.81 0.81 0.0 0 1 232.47 202.24
  L 225.79 211.44
  A 0.98 0.97 29.0 0 1 224.62 211.77
  C 203.46 203.03 179.14 188.47 166.21 169.05
  C 154.40 151.30 159.19 129.76 173.51 114.87
  Q 174.18 114.17 173.34 113.70
  Z"
/>
<rect fill="#0068b6" x="478.01" y="96.01" width="22.66" height="100.74" rx="11.05"/>
<rect fill="#0068b6" x="625.00" y="95.99" width="22.50" height="100.78" rx="10.97"/>
<path fill="#0068b6" d="
  M 813.03 187.65
  Q 801.74 198.45 785.00 198.69
  C 762.27 199.02 750.07 183.52 750.02 162.07
  Q 749.97 135.93 750.01 109.78
  Q 750.02 104.27 751.42 101.59
  C 755.88 93.04 768.65 94.42 771.79 103.45
  Q 772.52 105.58 772.50 110.15
  Q 772.36 140.76 772.63 159.30
  C 772.83 172.97 782.40 178.77 795.04 178.08
  C 810.22 177.25 813.77 165.50 813.76 152.51
  Q 813.73 130.36 813.76 108.26
  C 813.77 94.77 831.24 91.05 835.45 102.85
  Q 836.22 105.03 836.23 110.37
  Q 836.27 147.69 836.24 185.00
  C 836.23 201.73 833.18 216.67 819.10 226.38
  C 805.22 235.94 783.79 236.24 767.72 232.35
  C 762.73 231.14 757.11 228.17 755.22 223.31
  C 753.04 217.68 757.16 209.53 763.59 208.68
  C 769.45 207.90 777.23 213.26 783.69 213.88
  C 801.41 215.58 815.91 208.25 813.61 187.86
  Q 813.53 187.17 813.03 187.65
  Z"
/>
<path fill="#00469b" d="
  M 128.33 164.35
  C 131.57 184.75 142.24 199.87 158.66 211.85
  Q 176.44 224.82 196.24 233.90
  A 0.62 0.62 0.0 0 1 196.28 235.01
  C 167.50 250.80 132.70 252.36 102.81 238.90
  A 0.70 0.69 -74.5 0 1 102.41 238.18
  C 105.54 212.11 109.07 184.01 127.58 164.12
  A 0.44 0.44 0.0 0 1 128.33 164.35
  Z"
/>
</svg>
